<svg width="232" height="392" xmlns="http://www.w3.org/2000/svg">
 <!-- Created with Method Draw - http://github.com/duopixel/Method-Draw/ -->

 <g>
  <title>background</title>
  <rect fill="none" id="canvas_background" height="394" width="234" y="-1" x="-1"/>
  <g display="none" overflow="visible" y="0" x="0" height="100%" width="100%" id="canvasGrid">
   <rect fill="url(#gridpattern)" stroke-width="0" y="1" x="1" height="390" width="230"/>
  </g>
 </g>
 <g>
  <title>Layer 1</title>
  <!-- Created with Method Draw - http://github.com/duopixel/Method-Draw/ -->
  <path stroke="#fff" id="svg_25" d="m115.999999,8.966705c-60.473199,0 -109.499999,49.0268 -109.499999,109.5c0,60.487799 109.499999,264.566598 109.499999,264.566598s109.5,-204.078799 109.5,-264.566598c0,-60.4732 -49.0122,-109.5 -109.5,-109.5zm0,161.826399c-28.893399,0 -52.326399,-23.4184 -52.326399,-52.326399s23.433,-52.3264 52.326399,-52.3264s52.3264,23.433 52.3264,52.3264s-23.433,52.326399 -52.3264,52.326399z" stroke-width="1.5" fill="#000000"/>
  <ellipse stroke="#fff" ry="63" rx="63" id="svg_26" cy="117" cx="117.5" stroke-width="0" fill="#000000"/>
  <path stroke="#000" id="svg_38" d="m74.375308,197.715927c-5.92263,0.901212 -14.431696,-4.72448 -6.933677,-9.837064c6.345213,-3.324769 0.256404,-11.982486 6.966266,-16.187826c6.822799,-9.314563 14.086533,-18.836122 17.486619,-30.011777c-0.474422,-5.35403 -11.078922,-14.216674 -0.335482,-15.953208c8.858645,1.029834 5.618638,-12.23288 8.680411,-17.97947c1.841081,-8.722508 3.179367,-17.590446 2.849021,-26.524335c-6.169285,-0.172274 -12.464847,0.546024 -18.513037,-0.920777c-3.857977,-5.063987 8.71635,-7.585375 10.791219,-12.156289c4.353492,-6.569654 -6.373089,-13.828315 -1.781387,-21.594445c2.932892,-11.756281 16.501069,-19.378205 27.981695,-15.071753c11.888466,3.083008 20.676519,17.126668 15.025996,28.808371c-0.451119,2.253668 -3.981806,5.175779 -2.802635,6.970524c5.147745,3.572468 11.10805,6.685798 14.369505,12.20201c-4.617739,3.348202 -12.344473,0.798335 -18.105998,2.388825c-5.241668,4.649348 -0.064012,14.155706 0.204481,20.53453c1.635174,7.288195 3.07875,14.64065 4.952624,21.862453c3.939276,1.536593 12.03044,3.315889 7.591989,9.699139c-6.327458,5.136722 -3.230157,13.318568 0.339604,19.082817c4.443001,8.901796 12.069846,15.702042 16.742221,24.398224c1.735125,4.01483 -4.467686,11.125378 3.262961,9.462621c8.380873,1.780277 3.365748,13.401023 -4.165335,10.655421c-27.748639,0.977059 -55.554271,1.373678 -83.303571,0.292929l-1.303503,-0.120931l0,0l0.000011,0.000011z" stroke-opacity="null" stroke-width="0" fill="#ffffff"/>
 </g>
</svg>