<svg width="232" height="392" xmlns="http://www.w3.org/2000/svg">
 <!-- Created with Method Draw - http://github.com/duopixel/Method-Draw/ -->

 <g>
  <title>background</title>
  <rect fill="none" id="canvas_background" height="394" width="234" y="-1" x="-1"/>
  <g display="none" overflow="visible" y="0" x="0" height="100%" width="100%" id="canvasGrid">
   <rect fill="url(#gridpattern)" stroke-width="0" y="1" x="1" height="390" width="230"/>
  </g>
 </g>
 <g>
  <title>Layer 1</title>
  <!-- Created with Method Draw - http://github.com/duopixel/Method-Draw/ -->
  <path stroke="#fff" id="svg_25" d="m115.999999,8.966705c-60.473199,0 -109.499999,49.0268 -109.499999,109.5c0,60.487799 109.499999,264.566598 109.499999,264.566598s109.5,-204.078799 109.5,-264.566598c0,-60.4732 -49.0122,-109.5 -109.5,-109.5zm0,161.826399c-28.893399,0 -52.326399,-23.4184 -52.326399,-52.326399s23.433,-52.3264 52.326399,-52.3264s52.3264,23.433 52.3264,52.3264s-23.433,52.326399 -52.3264,52.326399z" stroke-width="1.5" fill="#000000"/>
  <ellipse stroke="#fff" ry="63" rx="63" id="svg_26" cy="117" cx="117.5" stroke-width="0" fill="#000000"/>
  <path stroke="#000" id="svg_39" d="m195.587489,111.95275c-7.758229,-1.304881 -15.83299,-2.164036 -22.389695,-2.396589l-1.156306,-0.038759c0.264852,-0.581383 0.465106,-0.975431 0.529704,-1.033569c0.142116,-0.116277 0.258392,-0.607222 0.271312,-1.085248c0,-0.264852 0.116277,-1.124007 0.297151,-2.260933c1.776447,0.064598 4.134277,0.116277 6.705281,0.135656c9.928725,0.077518 20.316096,0.878534 27.441265,2.138196c4.244094,0.749338 5.645872,0.723498 2.512865,-0.038759c-3.171766,-0.768717 -12.577246,-1.899184 -20.070624,-2.390129c-5.03219,-0.34237 -12.247796,-0.471566 -16.49835,-0.400508c0.122736,-0.736418 0.264852,-1.556814 0.413428,-2.396589c0.600762,-3.249283 0.801016,-6.517946 0.813936,-13.022973c0.01292,-10.09022 -0.529704,-12.867937 -3.817747,-19.540919c-1.33718,-2.726039 -2.848775,-5.03865 -4.676901,-7.131628c1.595573,-4.7092 1.556814,-12.002323 -0.096897,-18.397533c-1.363019,-5.245364 -1.841045,-5.581274 -6.595464,-4.573544c-4.03092,0.859154 -7.260824,2.02838 -11.401561,4.114898c-1.957322,0.988351 -4.657522,2.525785 -6.614843,3.733769c-5.103248,-1.795827 -10.380912,-2.984431 -16.013864,-3.623952c-5.71047,-0.645981 -19.708874,-0.284232 -24.676467,0.633061c-4.857776,0.897913 -9.231066,1.996081 -13.190928,3.300962c-1.976701,-1.220904 -4.844856,-2.868155 -6.892615,-3.901724c-4.160116,-2.092978 -7.39002,-3.255743 -11.43386,-4.114898c-4.741499,-1.01419 -5.232445,-0.67182 -6.589004,4.573544c-1.67955,6.479187 -1.69247,13.895047 -0.032299,18.591327c0.193794,0.536164 0.310071,0.917293 0.355289,1.214444c-6.73112,8.475268 -8.927455,17.958266 -7.467538,31.194413c0.381129,3.449537 0.968971,6.614843 1.789367,9.515297c-4.295772,-0.025839 -10.406751,0.129196 -14.8188,0.413428c-7.506297,0.497405 -16.911777,1.614952 -20.083543,2.383669c-3.126547,0.762257 -1.737688,0.788097 2.512865,0.045219c7.125168,-1.253203 17.518999,-2.067139 27.441265,-2.138196c1.873344,-0.00646 3.623952,-0.045219 5.129088,-0.083978c0.452187,1.530974 0.968971,2.990891 1.556814,4.37975l-0.045219,0.00646c-6.556705,0.226093 -14.625005,1.085248 -22.383235,2.390129c-5.820287,0.975431 -14.411832,2.926293 -15.413102,3.488296c-1.052949,0.587843 -0.193794,0.458646 4.315152,-0.68474c8.223336,-2.080058 18.914318,-3.675631 32.156924,-4.786718l1.479296,-0.129196c2.842316,6.601924 7.222065,11.640574 13.410562,15.568137c3.785448,2.409508 9.851207,4.883615 12.906696,5.271203c0.839775,0.103357 3.281582,0.607222 5.426239,1.111087c2.151116,0.503865 6.356451,1.259663 9.340882,1.69247l0.071058,0c-0.058138,0.038759 -0.109817,0.064598 -0.161495,0.103357c-3.617493,1.879804 -5.968863,4.806097 -7.551516,9.41194c-0.710579,0.213174 -1.595573,0.503865 -2.551624,0.833315c-3.417238,1.162765 -4.747959,1.401778 -8.210416,1.427618c-3.591653,0.025839 -4.444348,-0.129196 -6.589004,-1.136926c-3.120087,-1.453457 -6.027001,-4.127817 -7.964943,-7.318962c-3.236364,-5.335801 -8.830558,-9.108329 -13.494539,-9.108329c-3.985702,0 -4.741499,1.614952 -1.860425,3.972782c4.340991,3.546435 7.583815,7.163927 8.914535,9.928725c0.749338,1.550354 1.899184,3.946943 2.564544,5.322882c0.704119,1.466376 2.209254,3.455997 3.643332,4.831936c3.37202,3.216984 6.627763,4.754419 11.485539,5.477917c3.255743,0.478026 4.056759,0.478026 7.900345,-0.01292c1.853965,-0.226093 3.417238,-0.490945 4.819017,-0.820396c0,1.576193 0,3.391399 0,5.523136c0,11.408021 -0.135656,15.077192 -0.587843,16.14952c-0.852695,2.041299 -2.764798,4.140737 -4.625223,5.083869c-1.853965,0.943132 -2.428888,1.983161 -1.647251,2.939213c0.432807,0.516785 1.266122,0.607222 4.063219,0.426347c5.309962,-0.32945 9.063111,-2.293232 10.975214,-5.755689c0.613682,-1.111087 0.755798,-3.346181 0.949592,-14.973835c0.206714,-12.616005 0.297151,-13.830449 1.117547,-15.632735c0.497405,-1.072328 1.214444,-2.235094 1.614952,-2.551624c0.67182,-0.555543 0.717039,0.542624 0.717039,15.632735c-0.00646,16.653385 -0.174415,18.662385 -1.841045,21.86645c-0.374669,0.729958 -1.085248,1.67955 -1.582653,2.131737c-0.872074,0.794556 -1.240283,2.829396 -0.633061,3.443078c1.00127,0.99481 6.020541,-0.568463 8.7595,-2.726039c4.663981,-3.69501 5.219525,-6.750499 5.258284,-28.817203l0.019379,-12.945455l1.414698,0.135656l1.414698,0.129196l0.232553,16.931157c0.264852,19.062893 0.303611,19.340665 3.546435,23.022756c1.841045,2.080058 3.69501,3.229904 6.711741,4.127817c4.03738,1.214444 5.251824,-0.6589 2.538705,-3.908184c-2.952132,-3.533515 -3.094248,-4.883615 -2.932753,-25.800473c0.109817,-13.410561 0.109817,-13.410561 0.975431,-12.628925c1.821666,1.653711 2.170496,4.36683 2.170496,16.944076c0,15.619816 0.445727,17.105571 5.962403,19.83161c2.577463,1.259663 3.300962,1.414698 6.601924,1.427618c3.514136,0.01292 3.727309,-0.038759 3.856505,-0.956052c0.109817,-0.742878 -0.32299,-1.246743 -1.963782,-2.248013c-2.151116,-1.324261 -3.643332,-3.01673 -4.580004,-5.148467c-0.355289,-0.820396 -0.594302,-6.194956 -0.755798,-17.260607c-0.232553,-15.45832 -0.284232,-16.162439 -1.246743,-18.584867c-1.298421,-3.255743 -3.281582,-5.826747 -5.794448,-7.532136c-0.652441,-0.426347 -1.304881,-0.781637 -2.151116,-1.046489c1.040029,-0.103357 2.047759,-0.213174 3.02319,-0.355289c10.154818,-1.3501 15.522919,-2.474106 19.831611,-4.140737c9.114789,-3.507676 15.277446,-9.334422 18.617167,-17.596517c0.297151,-0.736418 0.594302,-1.434077 0.846235,-1.996081l2.571004,0.213174c13.249066,1.117547 23.940049,2.713119 32.163384,4.799637c4.508946,1.143386 5.3681,1.279042 4.315152,0.67828c-0.981891,-0.549084 -9.573436,-2.493486 -15.387263,-3.468917zm-38.849286,-0.200254c-1.505135,3.307422 -5.704011,7.557975 -9.09541,9.224606c-3.346181,1.653711 -8.591545,2.913373 -14.534568,3.514136c-4.063219,0.413428 -26.724226,0.536164 -30.464455,0.167955c-12.383452,-1.214444 -19.321286,-3.598113 -24.437454,-8.371911c-4.844856,-4.534785 -7.105789,-10.690982 -6.711741,-18.268337c0.251933,-4.741499 1.395319,-7.719471 4.38621,-11.336963c2.719579,-3.294502 5.581274,-5.329342 8.953294,-6.362911c2.822936,-0.865614 11.485539,-0.943132 23.132573,-0.193794c5.148467,0.32945 9.405481,0.32945 14.547488,0c12.183198,-0.768717 20.316096,-0.68474 23.319907,0.245473c4.72212,1.459917 9.024352,5.38748 11.608275,10.619924c1.162765,2.33845 1.388859,3.333261 1.556814,6.944294c0.232553,4.974052 -0.626601,10.258175 -2.260933,13.817529zm-61.432775,-21.356125c-6.931374,-1.214444 -10.891236,10.652223 -5.574814,16.711523c2.525785,2.874615 4.767338,3.346181 7.570895,1.602032c2.596843,-1.621412 4.005081,-4.651062 4.005081,-8.578625c0,-5.238904 -2.383669,-9.08895 -6.001162,-9.734931zm42.07273,0.710579c-6.931374,-1.214444 -10.897696,10.639304 -5.581274,16.705063c2.532245,2.874615 4.767338,3.35264 7.577355,1.595573c2.590383,-1.614952 4.005081,-4.651062 4.005081,-8.578625c0,-5.219525 -2.383669,-9.08249 -6.001162,-9.722011zm-18.643006,23.332826c-0.148576,0.478026 -0.872074,1.188605 -1.602032,1.569733c-1.847505,0.949592 -3.178226,0.620142 -5.129088,-1.156306c-1.207984,-1.091708 -1.757068,-1.66663 -2.125277,-0.523244c-0.34237,1.059409 1.808746,3.184685 3.468917,3.837126c1.524515,0.607222 2.616222,0.626601 4.269933,-0.064598c1.640791,-0.68474 3.074869,-2.525785 3.074869,-3.720849c0,-1.111087 -1.595573,-1.059409 -1.957322,0.058138zm-2.047759,-3.71439c1.052949,-0.930212 1.291962,-2.842315 0.284232,-3.856505s-3.055489,-0.859154 -3.856505,0.277772c-0.930212,1.33072 -0.432807,2.34491 0.232553,3.423698c1.033569,0.801016 2.422428,0.962511 3.339721,0.155035z" fill-opacity="null" stroke-opacity="null" stroke-width="0" fill="#ffffff"/>
 </g>
</svg>