<svg width="232" height="392" xmlns="http://www.w3.org/2000/svg">
 <!-- Created with Method Draw - http://github.com/duopixel/Method-Draw/ -->

 <g>
  <title>background</title>
  <rect fill="none" id="canvas_background" height="394" width="234" y="-1" x="-1"/>
  <g display="none" overflow="visible" y="0" x="0" height="100%" width="100%" id="canvasGrid">
   <rect fill="url(#gridpattern)" stroke-width="0" y="1" x="1" height="390" width="230"/>
  </g>
 </g>
 <g>
  <title>Layer 1</title>
  <!-- Created with Method Draw - http://github.com/duopixel/Method-Draw/ -->
  <path stroke="#fff" id="svg_25" d="m115.999999,8.966705c-60.473199,0 -109.499999,49.0268 -109.499999,109.5c0,60.487799 109.499999,264.566598 109.499999,264.566598s109.5,-204.078799 109.5,-264.566598c0,-60.4732 -49.0122,-109.5 -109.5,-109.5zm0,161.826399c-28.893399,0 -52.326399,-23.4184 -52.326399,-52.326399s23.433,-52.3264 52.326399,-52.3264s52.3264,23.433 52.3264,52.3264s-23.433,52.326399 -52.3264,52.326399z" stroke-width="1.5" fill="#000000"/>
  <ellipse stroke="#fff" ry="63" rx="63" id="svg_26" cy="117" cx="117.5" stroke-width="0" fill="#000000"/>
  <path stroke="#000" id="svg_44" d="m73.344626,195.012549c-12.79104,-6.857756 0.324562,-20.399745 10.990047,-16.020294c7.936787,-0.018105 15.873619,-0.006159 23.810428,-0.009641c0,-15.609866 0,-31.219755 0,-46.82963c-19.881702,-23.983427 -39.763403,-47.966853 -59.6451,-71.95028c44.999866,-0.16704 90.00015,-0.166859 135.000006,0c-19.52427,24.101934 -39.048541,48.203863 -58.572806,72.305797c0,15.491382 0,30.982745 0,46.474113c11.718823,0.104484 23.457706,-0.284098 35.159342,0.395519c9.213249,2.474978 5.525151,17.606582 -3.428746,16.011476c-27.770173,-0.096634 -55.549211,0.175982 -83.31317,-0.377055l0,-0.000005zm57.743818,-84.78342c8.949847,-3.410537 7.69164,-18.168155 -1.908914,-19.672855c-14.482285,-3.989355 -17.609533,21.134413 -2.387658,20.544826c1.469867,0.009655 2.963349,-0.198482 4.296567,-0.871971l0.000005,0z" fill-opacity="null" stroke-opacity="null" stroke-width="0" fill="#ffffff"/>
 </g>
</svg>