<svg width="232" height="392" xmlns="http://www.w3.org/2000/svg">
 <!-- Created with Method Draw - http://github.com/duopixel/Method-Draw/ -->

 <g>
  <title>background</title>
  <rect fill="none" id="canvas_background" height="394" width="234" y="-1" x="-1"/>
  <g display="none" overflow="visible" y="0" x="0" height="100%" width="100%" id="canvasGrid">
   <rect fill="url(#gridpattern)" stroke-width="0" y="1" x="1" height="390" width="230"/>
  </g>
 </g>
 <g>
  <title>Layer 1</title>
  <!-- Created with Method Draw - http://github.com/duopixel/Method-Draw/ -->
  <path stroke="#fff" id="svg_25" d="m115.999999,8.966705c-60.473199,0 -109.499999,49.0268 -109.499999,109.5c0,60.487799 109.499999,264.566598 109.499999,264.566598s109.5,-204.078799 109.5,-264.566598c0,-60.4732 -49.0122,-109.5 -109.5,-109.5zm0,161.826399c-28.893399,0 -52.326399,-23.4184 -52.326399,-52.326399s23.433,-52.3264 52.326399,-52.3264s52.3264,23.433 52.3264,52.3264s-23.433,52.326399 -52.3264,52.326399z" stroke-width="1.5" fill="#000000"/>
  <ellipse stroke="#fff" ry="63" rx="63" id="svg_26" cy="117" cx="117.5" stroke-width="0" fill="#000000"/>
  <path stroke="#000" id="svg_45" d="m83.081798,146.748261l66.582202,0c9.597383,-0.017757 16.144799,-8.089448 16.112836,-16.393403l0,-5.583559c19.001569,-0.014916 32.787508,-14.280302 32.780405,-30.914492c0.007103,-16.930379 -13.508218,-30.839912 -29.23963,-30.827837l-102.628502,0l0,67.327308c0.014916,9.142803 7.889856,16.375646 16.392689,16.391982zm82.692907,-71.054889l0,0l3.540775,0c13.01812,-0.020598 17.193891,12.29079 17.131386,18.255773c0.012785,9.631479 -7.120616,18.86875 -20.672161,17.972369l0,-36.228142zm-135.774705,75.154661c0.012075,12.444923 9.499364,18.215997 17.135648,18.251511l137.731543,0c9.108707,-0.035514 17.09232,-7.197329 17.132807,-18.251511l-171.999997,0z" fill-opacity="null" stroke-opacity="null" stroke-width="0" fill="#ffffff"/>
 </g>
</svg>