<svg width="232" height="392" xmlns="http://www.w3.org/2000/svg">
 <!-- Created with Method Draw - http://github.com/duopixel/Method-Draw/ -->

 <g>
  <title>background</title>
  <rect fill="none" id="canvas_background" height="394" width="234" y="-1" x="-1"/>
  <g display="none" overflow="visible" y="0" x="0" height="100%" width="100%" id="canvasGrid">
   <rect fill="url(#gridpattern)" stroke-width="0" y="1" x="1" height="390" width="230"/>
  </g>
 </g>
 <g>
  <title>Layer 1</title>
  <!-- Created with Method Draw - http://github.com/duopixel/Method-Draw/ -->
  <path stroke="#fff" id="svg_25" d="m115.999999,8.966705c-60.473199,0 -109.499999,49.0268 -109.499999,109.5c0,60.487799 109.499999,264.566598 109.499999,264.566598s109.5,-204.078799 109.5,-264.566598c0,-60.4732 -49.0122,-109.5 -109.5,-109.5zm0,161.826399c-28.893399,0 -52.326399,-23.4184 -52.326399,-52.326399s23.433,-52.3264 52.326399,-52.3264s52.3264,23.433 52.3264,52.3264s-23.433,52.326399 -52.3264,52.326399z" stroke-width="1.5" fill="#000000"/>
  <ellipse stroke="#fff" ry="63" rx="63" id="svg_26" cy="117" cx="117.5" stroke-width="0" fill="#000000"/>
  <path id="svg_41" d="m177.45867,174.388452c0,2.128085 -1.724115,3.852206 -3.852212,3.852206l-24.668521,0c-2.128085,0 -3.852206,-1.724115 -3.852206,-3.852206l0,-52.409135c0,-2.127921 1.724115,-3.852206 3.852206,-3.852206l24.668521,0c2.128096,0 3.852212,1.724285 3.852212,3.852206l0,52.409135zm-91.329683,0c0,2.128085 -1.724454,3.852206 -3.852212,3.852206l-24.668855,0c-2.127757,0 -3.852206,-1.724115 -3.852206,-3.852206l0,-52.409135c0,-2.127921 1.724449,-3.852206 3.852206,-3.852206l24.668855,0c2.127757,0 3.852212,1.724285 3.852212,3.852206l0,52.409135zm29.802915,-142.112769c-44.638934,0 -80.875401,35.908767 -81.431905,80.41148l14.132317,0c0.458257,-36.781982 30.408704,-66.459508 67.299588,-66.459508c36.890879,0 66.841342,29.677525 67.294241,66.459508l14.131988,0c-0.550834,-44.502713 -36.797962,-80.41148 -81.426235,-80.41148l0.000005,0zm-81.317339,121.176394l13.875878,0l0,-40.846837l-13.875878,0l0,40.846837zm148.497031,-40.852337l0,40.847012l14.388411,0l0,-40.847012l-14.388411,0z" fill-opacity="null" stroke-opacity="null" stroke-width="0" stroke="#000" fill="#ffffff"/>
 </g>
</svg>