<svg width="232" height="392" xmlns="http://www.w3.org/2000/svg">
 <!-- Created with Method Draw - http://github.com/duopixel/Method-Draw/ -->

 <g>
  <title>background</title>
  <rect fill="none" id="canvas_background" height="394" width="234" y="-1" x="-1"/>
  <g display="none" overflow="visible" y="0" x="0" height="100%" width="100%" id="canvasGrid">
   <rect fill="url(#gridpattern)" stroke-width="0" y="1" x="1" height="390" width="230"/>
  </g>
 </g>
 <g>
  <title>Layer 1</title>
  <!-- Created with Method Draw - http://github.com/duopixel/Method-Draw/ -->
  <path stroke="#fff" id="svg_25" d="m115.999999,8.966705c-60.473199,0 -109.499999,49.0268 -109.499999,109.5c0,60.487799 109.499999,264.566598 109.499999,264.566598s109.5,-204.078799 109.5,-264.566598c0,-60.4732 -49.0122,-109.5 -109.5,-109.5zm0,161.826399c-28.893399,0 -52.326399,-23.4184 -52.326399,-52.326399s23.433,-52.3264 52.326399,-52.3264s52.3264,23.433 52.3264,52.3264s-23.433,52.326399 -52.3264,52.326399z" stroke-width="1.5" fill="#000000"/>
  <ellipse stroke="#fff" ry="63" rx="63" id="svg_26" cy="117" cx="117.5" stroke-width="0" fill="#000000"/>
  <path id="svg_43" d="m121.996712,60.995364c3.054381,-5.531258 8.642682,-12.73662 -0.958661,-14.474893c-2.67456,-1.372996 -5.349991,-3.802502 -8.021104,-1.096075c-5.94313,2.347757 -11.09511,5.631003 -4.844062,11.775651c2.772021,3.968223 5.29327,12.626487 8.433281,13.580055c1.874065,-3.218128 3.629655,-6.503855 5.390546,-9.784745l0,0.000006zm-13.129315,15.272508c-5.455866,-9.73766 -9.846338,-20.184376 -16.524065,-29.167529c-8.121786,-8.671556 -24.124638,-4.806059 -27.761329,6.379046c-4.830907,11.058401 5.5926,24.261772 17.392545,22.877655c8.954327,0.149972 17.959602,0.553193 26.892849,-0.089172zm45.336835,0.328729c11.604014,-1.555486 18.27712,-16.163976 11.670235,-25.863657c-5.854805,-10.351277 -22.698802,-10.712135 -28.579141,-0.192955c-5.091764,8.50426 -9.511139,17.390852 -14.18357,26.128258c10.329821,0.590623 20.756794,0.452857 31.092477,-0.071653l0,0.000006zm19.217409,12.455119c3.955873,-3.480816 19.27469,-7.584402 7.672978,-10.890158c-2.874003,-0.815558 -6.224697,-4.556962 -8.807681,-3.5331c-5.608874,6.973629 -14.233034,11.064692 -23.237439,10.636183c-1.762704,0.579418 -10.753388,-0.881236 -8.324192,0.777817c6.352284,3.622088 12.544595,7.555689 19.115099,10.770645c4.60212,-2.451015 9.068598,-5.150972 13.581236,-7.761393l0,0.000006zm-90.3784,1.970698c3.382931,-1.970698 6.765856,-3.941401 10.148775,-5.912098c-10.340501,-0.513806 -22.174287,0.976658 -29.989049,-7.340313c-2.203301,-2.467091 -4.316099,-5.291648 -7.369771,-2.185674c-3.657664,2.519907 -14.908191,5.102223 -6.24589,8.17834c7.542916,4.455803 15.032778,9.020321 22.762125,13.146471c3.68312,-1.727205 7.154979,-3.885866 10.693816,-5.886719l-0.000006,-0.000006zm49.577614,21.988876c4.383894,-3.522379 15.00236,-6.878225 15.357106,-10.658055c-9.911544,-5.70361 -19.53439,-12.053968 -29.903824,-16.874875c-3.568515,-1.353867 -6.461743,0.729325 -9.334141,2.538708c-8.493777,5.052282 -17.191916,9.791006 -25.409308,15.284201c10.746846,6.645508 21.622871,13.094514 32.604694,19.344107c5.601324,-3.141711 11.130233,-6.411838 16.685474,-9.634081l0,-0.000006zm43.980977,10.994429c4.548035,-2.869614 9.096076,-5.739222 13.644135,-8.608853c-0.037234,-9.611266 0.116269,-19.226544 -0.146675,-28.834453c-9.179231,5.121896 -18.227918,10.499532 -27.123884,16.099139c-0.972954,9.913041 -0.479518,19.990021 -0.268054,29.953021c4.694125,-2.765575 9.274206,-5.723515 13.894478,-8.608853zm-106.664423,-6.055249c0.461915,-8.192807 1.457631,-17.532154 -8.422571,-19.959096c-6.239396,-2.910044 -14.887743,-10.366149 -19.694559,-10.291359c-0.149764,9.231445 -0.070502,18.464589 -0.08671,27.696845c9.216626,5.751685 18.269702,11.780273 27.685246,17.202167c0.912965,-4.758694 0.316147,-9.803177 0.518595,-14.648557zm66.000133,31.721533c5.451471,-3.44165 10.902937,-6.8833 16.354408,-10.32495c-0.025242,-9.922505 0.385051,-19.859279 -0.063358,-29.771128c-5.991199,1.71807 -12.843663,7.028675 -19.15572,10.327281c-4.726362,2.768533 -9.452748,5.537084 -14.179116,8.305629c0.093204,10.594811 -0.254792,21.208971 0.34468,31.788093c5.650192,-3.301379 11.150203,-6.856979 16.6991,-10.324926l0.000006,0zm-22.852156,-5.56913c0,-5.298017 0,-10.596039 0,-15.894038c-10.943712,-6.395475 -21.852397,-12.851571 -32.838776,-19.173514c-0.607546,10.131297 -0.260356,20.300693 -0.351973,30.449492c10.941273,6.850234 21.76917,13.887543 32.848848,20.512115c0.431139,-5.279245 0.273713,-10.600613 0.341901,-15.894055zm63.788466,21.29787c4.460001,-2.969902 8.920003,-5.939809 13.380022,-8.909711c-0.186091,-9.415985 0.459428,-18.959391 -0.479429,-28.271475c-9.275118,5.291815 -18.226535,11.316425 -27.336344,16.96561c0.218846,9.74243 -0.449357,19.596401 0.557021,29.255586c4.705366,-2.888111 9.26739,-6.005391 13.87873,-9.040011zm-107.034917,-5.278756c-0.036303,-4.936926 -0.072649,-9.873858 -0.108958,-14.810777c-9.214211,-5.764726 -18.312338,-11.722293 -27.664977,-17.260361c-0.585304,9.458401 -0.251691,18.953666 -0.339719,28.428955c9.295381,6.153014 18.486193,12.469084 27.906209,18.430039c0.360924,-4.914594 0.181804,-9.86242 0.207445,-14.787855zm66.334199,32.443386c5.414059,-3.595671 10.828117,-7.191337 16.242176,-10.786996c-0.012576,-10.026078 0.191124,-20.056474 -0.078278,-30.079123c-11.020869,6.795368 -21.96801,13.715812 -32.834423,20.755411c-1.228063,9.681159 -0.431801,19.662741 -0.433596,29.449716c3.372609,2.054265 11.995756,-7.049993 17.104121,-9.339014l0,0.000006zm-23.087753,-4.291979c-0.654685,-6.913318 2.815695,-16.644198 -5.970853,-19.32428c-8.860908,-5.612309 -17.686199,-11.28587 -26.663704,-16.710317c-1.308505,9.491282 0.060019,19.378998 -0.945148,28.986393c10.765731,7.782526 21.81279,15.222465 33.061099,22.288147c0.902154,-4.951458 0.341049,-10.196355 0.518606,-15.239949l0,0.000006zm-37.650935,-1.827571c-13.103375,-8.74715 -26.206744,-17.494294 -39.310107,-26.241426c0.014854,-26.994908 -0.358115,-53.996304 0.120998,-80.986144c6.561542,-4.048606 13.544073,-7.367481 20.296846,-11.081985c-4.361604,-12.485704 1.931329,-27.658478 14.5784,-32.332007c10.601811,-4.350048 23.381436,-0.424449 30.140596,8.733155c4.90946,-2.517885 9.818931,-5.03577 14.728397,-7.553656c4.935822,2.540664 9.871675,5.081329 14.807491,7.621987c7.072587,-8.389482 19.189805,-13.177157 29.690446,-8.475453c12.604352,4.430305 19.47461,19.569167 14.954464,32.03527c6.802464,3.840559 14.198329,6.841707 20.435417,11.52817c0.276498,26.835025 0.002475,53.674004 -0.0226,80.510675c-26.072532,17.254446 -51.72256,35.167536 -78.218384,51.765943c-7.70454,-0.002075 -14.35467,-8.36755 -21.503943,-11.759271c-6.911827,-4.569627 -13.806206,-9.1656 -20.698051,-13.765252l0.00003,-0.000006z" fill-opacity="null" stroke-opacity="null" stroke-width="0" stroke="#000" fill="#ffffff"/>
 </g>
</svg>