<svg width="232" height="392" xmlns="http://www.w3.org/2000/svg">
 <!-- Created with Method Draw - http://github.com/duopixel/Method-Draw/ -->

 <g>
  <title>background</title>
  <rect fill="none" id="canvas_background" height="394" width="234" y="-1" x="-1"/>
  <g display="none" overflow="visible" y="0" x="0" height="100%" width="100%" id="canvasGrid">
   <rect fill="url(#gridpattern)" stroke-width="0" y="1" x="1" height="390" width="230"/>
  </g>
 </g>
 <g>
  <title>Layer 1</title>
  <!-- Created with Method Draw - http://github.com/duopixel/Method-Draw/ -->
  <path stroke="#fff" id="svg_25" d="m115.999999,8.966705c-60.473199,0 -109.499999,49.0268 -109.499999,109.5c0,60.487799 109.499999,264.566598 109.499999,264.566598s109.5,-204.078799 109.5,-264.566598c0,-60.4732 -49.0122,-109.5 -109.5,-109.5zm0,161.826399c-28.893399,0 -52.326399,-23.4184 -52.326399,-52.326399s23.433,-52.3264 52.326399,-52.3264s52.3264,23.433 52.3264,52.3264s-23.433,52.326399 -52.3264,52.326399z" stroke-width="1.5" fill="#000000"/>
  <ellipse stroke="#fff" ry="63" rx="63" id="svg_26" cy="117" cx="117.5" stroke-width="0" fill="#000000"/>
  <path stroke="#000" id="svg_37" d="m105.821231,52.251654l-31.253889,0l-25.567342,25.567346l0,31.253894l77.178773,77.178785l56.821231,-56.826155l-77.178773,-77.17387zm-38.178992,29.651634c-3.042327,-3.042327 -3.042327,-7.971979 0,-11.009392c3.042327,-3.042327 7.971978,-3.042327 11.014305,0c3.047242,3.047242 3.042327,7.967064 0,11.014307c-3.042327,3.042327 -7.971978,3.042327 -11.014305,-0.004915z" stroke-opacity="null" stroke-width="0" fill="#ff0000"/>
 </g>
</svg>