<svg width="232" height="392" xmlns="http://www.w3.org/2000/svg">
 <!-- Created with Method Draw - http://github.com/duopixel/Method-Draw/ -->

 <g>
  <title>background</title>
  <rect fill="none" id="canvas_background" height="394" width="234" y="-1" x="-1"/>
  <g display="none" overflow="visible" y="0" x="0" height="100%" width="100%" id="canvasGrid">
   <rect fill="url(#gridpattern)" stroke-width="0" y="1" x="1" height="390" width="230"/>
  </g>
 </g>
 <g>
  <title>Layer 1</title>
  <!-- Created with Method Draw - http://github.com/duopixel/Method-Draw/ -->
  <path stroke="#fff" id="svg_25" d="m115.999999,8.966705c-60.473199,0 -109.499999,49.0268 -109.499999,109.5c0,60.487799 109.499999,264.566598 109.499999,264.566598s109.5,-204.078799 109.5,-264.566598c0,-60.4732 -49.0122,-109.5 -109.5,-109.5zm0,161.826399c-28.893399,0 -52.326399,-23.4184 -52.326399,-52.326399s23.433,-52.3264 52.326399,-52.3264s52.3264,23.433 52.3264,52.3264s-23.433,52.326399 -52.3264,52.326399z" stroke-width="1.5" fill="#000000"/>
  <ellipse stroke="#fff" ry="63" rx="63" id="svg_26" cy="117" cx="117.5" stroke-width="0" fill="#000000"/>
  <path stroke="#000" id="svg_46" d="m37.652505,119.499776c-0.322587,-12.816937 6.024769,-25.409281 16.702269,-32.575514c17.408856,-13.231457 40.385824,-19.260699 61.984208,-15.617849c10.695185,-1.650296 15.428627,9.452751 11.666138,18.002945c-5.815687,5.687474 -15.931493,0.278264 -23.463444,3.219893c-24.418955,3.144349 -48.523286,13.76104 -65.026996,32.414526c-0.100675,-1.99554 -2.655412,-3.325235 -1.862169,-5.444001l-0.000005,0zm0.294959,11.373953c1.300275,-9.041533 10.317252,-13.749122 16.586984,-19.243804c21.106851,-14.938679 47.565474,-20.86268 73.151661,-19.857947c0.634025,10.301651 -4.213685,20.134231 -10.046262,28.295253c-8.008959,4.465123 -17.968749,-0.619142 -26.458712,3.445491c-14.89048,3.604483 -31.465146,8.146102 -40.995712,21.128019c-3.46307,10.424888 -10.782747,-0.185836 -11.349007,-6.321515c-0.804972,-2.437767 -0.692973,-4.942136 -0.888942,-7.445493l-0.000011,-0.000005zm4.088262,-30.916881c1.274538,-11.344144 8.751232,-20.724148 15.610286,-29.367861c7.731901,-9.212159 18.257551,-15.965673 30.085867,-18.439722c9.375334,-2.448711 19.037875,-3.467442 28.649836,-4.496016c7.289453,5.598933 11.9265,15.335114 10.705118,24.544586c-5.661635,1.434041 -15.672105,-3.414276 -23.306406,-2.231956c-21.65155,0.203926 -43.785885,8.881619 -58.417982,25.070694c-1.218291,1.562245 -2.31365,3.217897 -3.326719,4.920269l0,0.000005zm-1.160554,44.750474c8.096426,6.492451 8.361865,17.745158 13.337484,26.215248c-5.96424,-7.678037 -11.214146,-16.648008 -13.337484,-26.215248zm6.41115,6.185359c2.539838,-6.998278 10.501998,-16.833844 17.145097,-16.102419c2.655618,6.840271 3.806128,14.251978 8.122463,20.418472c11.589304,21.274108 32.797731,39.678144 58.01122,40.257533c4.123253,0.835755 15.053975,-1.940884 14.609752,-0.792058c-10.538179,5.175665 -22.738967,6.310592 -34.350432,5.894192c-21.564488,-1.432055 -43.044017,-11.789368 -56.007933,-29.312899c-3.669082,-6.293702 -5.754753,-13.343655 -7.530166,-20.361825l0,-0.000995zm17.749629,-17.843532c5.818746,-2.706109 16.720354,-10.937687 21.092737,-4.303129c10.670649,21.016721 28.710654,38.887091 50.919926,47.290612c11.530961,3.846971 24.502936,3.786332 35.747707,-1.014665c-4.689719,7.281524 -12.450228,11.951352 -19.763559,16.24055c-18.691241,7.978168 -41.285098,3.652193 -57.033726,-8.786121c-15.242686,-12.066626 -27.207943,-29.336762 -30.922443,-48.602406l-0.021956,-0.446214l-0.018686,-0.378628l0,0l0,0zm7.797591,-75.677409c14.145937,-9.729919 31.675334,-14.29302 48.773527,-13.080891c-8.752333,5.586309 -19.734719,3.464066 -29.33207,6.488665c-6.695575,1.457798 -13.34146,3.418152 -19.441456,6.592221l0,0.000005zm12.214397,68.555883c9.313326,-4.40846 19.912123,-4.336903 29.977244,-3.733682c6.068091,9.450965 10.39506,20.436352 19.817199,27.249795c10.980433,9.804746 26.958603,12.572463 40.794187,7.965238c4.751311,-3.209944 10.026349,-1.158763 7.431581,5.20847c-3.123514,10.571967 -14.214228,15.214957 -24.377723,15.727756c-20.793123,2.077035 -39.815293,-9.736186 -53.86156,-24.004069c-8.194305,-8.203745 -15.115183,-17.770005 -19.780933,-28.413514l0.000005,0.000005zm31.584207,-78.608189c7.57866,-6.012742 17.900184,-0.572127 25.654747,2.305203c7.712815,6.598978 8.746371,17.578798 10.784627,26.95274c3.407718,22.005053 2.02933,45.644392 -8.263386,65.730929c-2.459623,7.041011 -9.52847,10.855182 -14.059181,3.242745c-5.2651,-5.806735 -9.290948,-12.563536 -13.090219,-19.366035c-2.246965,-6.509341 5.108099,-11.097691 6.648471,-17.049509c3.001251,-5.933933 3.76448,-12.608249 4.101381,-19.102681c1.414164,-9.71551 0.022862,-19.794353 -2.532191,-29.201596c-1.791808,-5.205384 -4.701631,-10.247089 -9.24425,-13.511801l0,0.000005zm21.782934,103.927038c14.918814,-16.854715 17.284023,-40.788218 16.161052,-62.335628c-0.68373,-12.704243 -2.615671,-25.832938 -9.314816,-36.896539c6.922743,0.21437 14.368243,6.716949 19.792362,11.505633c15.372975,19.546309 19.893711,48.140803 8.206728,70.599517c-4.597291,9.081274 -10.824374,17.278078 -18.134719,24.346911c-6.119783,-0.502851 -12.323019,-2.818397 -16.710611,-7.219894l0.000005,0zm17.012727,7.317294c16.066628,-15.485279 27.701956,-37.741263 24.229644,-60.561716c-1.38236,-10.688232 -5.284971,-21.01304 -11.129487,-30.055062c10.704149,6.670235 16.655976,18.48434 22.009512,29.459783c7.695936,19.18219 3.512075,42.562141 -10.241008,57.893389c-7.062901,4.005968 -17.028643,4.619143 -24.868661,3.263605zm26.45076,-3.581637c5.511591,-9.627858 11.765512,-19.387891 12.339935,-30.810528c0.856637,-3.819153 -0.472057,7.493186 -0.933186,9.873322c-1.465835,8.405491 -3.379895,17.376467 -8.589328,24.234623c-1.198525,-0.664845 -0.663849,-3.902623 -2.817417,-3.297417l-0.000005,0z" fill-opacity="null" stroke-opacity="null" stroke-width="0" fill="#ffffff"/>
 </g>
</svg>